<svg xmlns="http://www.w3.org/2000/svg" width="80" height="32" viewBox="0 0 80 32">
  <g fill="none" fill-rule="evenodd">
    <!-- Deer horn icon -->
    <path d="M12 8c0-1.5.8-2.8 2-3.5V4c0-1.1.9-2 2-2s2 .9 2 2v.5c1.2.7 2 2 2 3.5 0 2.2-1.8 4-4 4s-4-1.8-4-4zm4-1c-.6 0-1 .4-1 1s.4 1 1 1 1-.4 1-1-.4-1-1-1z" fill="white" opacity="0.9"/>
    <path d="M14 15v7c0 1.1.9 2 2 2s2-.9 2-2v-7h-4z" fill="white" opacity="0.9"/>
    <!-- Chinese text: 麓湖 -->
    <text x="24" y="20" font-family="system-ui, -apple-system, 'Segoe UI', sans-serif" font-size="15" font-weight="700" fill="white" letter-spacing="1">麓湖</text>
    <!-- English text: LUXELAKES -->
    <text x="24" y="27" font-family="system-ui, -apple-system, 'Segoe UI', sans-serif" font-size="6" font-weight="500" fill="white" opacity="0.8" letter-spacing="0.5">LUXELAKES</text>
  </g>
</svg>
